#!OML:ASF C:\Vicon Data\Big\jianyuan-13\jianyuan\Session 1\Capture.male.ASF
:FULLY-SPECIFIED
:DEGREES
70
root -8.885411 18.068295 -20.270348 4.835102 14.216912 5.319303
lowerback -1.362801 1.142250 -4.760285 
upperback 5.076786 1.838117 -1.698199 
thorax 5.953184 0.731029 1.014393 
lowerneck -0.659706 -3.926825 2.456946 
upperneck 14.862467 -5.349088 -0.448430 
head 4.993962 -2.497676 -0.822333 
rclavicle 0.000000 0.000000 
rhumerus -33.981601 -11.563729 -85.168793 
rradius 42.399165 
rwrist 20.095807 
rhand -18.882631 -18.970653 
rfingers 0.000000 
rthumb 7.418437 -48.820592 
lclavicle 0.000000 0.000000 
lhumerus -31.214596 25.999158 74.358363 
lradius 28.332655 
lwrist -49.565689 
lhand -18.403703 1.734363 
lfingers 0.000000 
lthumb 7.880718 31.567479 
rfemur -14.939093 5.280079 20.125720 
rtibia 25.752609 
rfoot -17.735377 -10.326703 
rtoes -21.962873 
lfemur -73.505615 7.166459 -22.396404 
ltibia 84.748367 
lfoot -12.156258 -9.656380 
ltoes -45.846562 
71
root -8.891567 18.068815 -20.198792 4.669366 14.416987 5.334057
lowerback -1.322951 1.129679 -4.755932 
upperback 5.080259 1.820875 -1.735708 
thorax 5.936222 0.724205 0.971048 
lowerneck -0.600873 -3.947641 2.427837 
upperneck 14.862818 -5.389723 -0.323527 
head 4.986505 -2.512856 -0.774821 
rclavicle 0.000000 0.000000 
rhumerus -34.125858 -11.572438 -85.138921 
rradius 42.596164 
rwrist 20.191550 
rhand -18.837947 -18.912554 
rfingers 0.000000 
rthumb 7.461583 -48.760942 
lclavicle 0.000000 0.000000 
lhumerus -31.147070 25.745371 74.431068 
lradius 28.339615 
lwrist -49.502249 
lhand -18.342861 1.851498 
lfingers 0.000000 
lthumb 7.939418 31.682374 
rfemur -14.341712 4.916926 20.262344 
rtibia 25.483810 
rfoot -17.790787 -10.196662 
rtoes -22.016091 
lfemur -73.287842 6.572453 -22.240088 
ltibia 82.094441 
lfoot -12.282075 -9.491912 
ltoes -46.162065 
72
root -8.891097 18.076990 -20.119406 4.419721 14.469591 5.388697
lowerback -1.287474 1.167359 -4.791988 
upperback 5.113199 1.872815 -1.747035 
thorax 5.947776 0.747968 0.981910 
lowerneck -0.562950 -3.951494 2.282817 
upperneck 14.895295 -5.395791 -0.250148 
head 4.997598 -2.519441 -0.724511 
rclavicle 0.000000 0.000000 
rhumerus -34.280530 -11.481583 -85.092323 
rradius 42.809686 
rwrist 19.689041 
rhand -18.790674 -18.921112 
rfingers 0.000000 
rthumb 7.507218 -48.767831 
lclavicle 0.000000 0.000000 
lhumerus -31.131039 25.664346 74.500079 
lradius 28.395530 
lwrist -49.192041 
lhand -18.267844 1.723273 
lfingers 0.000000 
lthumb 8.011794 31.551411 
rfemur -13.560657 5.140460 20.307809 
rtibia 25.133209 
rfoot -17.965802 -10.456631 
rtoes -21.966482 
lfemur -72.769618 6.027700 -22.077687 
ltibia 79.406126 
lfoot -12.477521 -9.359112 
ltoes -46.384587 
73
root -8.883470 18.075231 -20.045870 4.331751 14.683762 5.320152
lowerback -1.379602 1.151206 -4.738149 
upperback 5.087733 1.847762 -1.630784 
thorax 5.972152 0.734704 1.073262 
lowerneck -0.595606 -3.968675 2.148463 
upperneck 14.953859 -5.404447 -0.318760 
head 5.027754 -2.533338 -0.726934 
rclavicle 0.000000 0.000000 
rhumerus -34.381560 -11.413362 -84.878933 
rradius 42.846182 
rwrist 19.672481 
rhand -18.775454 -19.035717 
rfingers 0.000000 
rthumb 7.521876 -48.882001 
lclavicle 0.000000 0.000000 
lhumerus -31.119929 25.749187 74.739482 
lradius 28.443702 
lwrist -49.115345 
lhand -18.112767 1.777613 
lfingers 0.000000 
lthumb 8.161539 31.600017 
rfemur -13.121568 4.707886 20.463183 
rtibia 24.940573 
rfoot -17.999133 -10.203403 
rtoes -22.022560 
lfemur -72.427663 5.274017 -21.775089 
ltibia 76.759373 
lfoot -12.590947 -9.208199 
ltoes -46.297255 
74
root -8.886252 18.070286 -19.971842 4.335716 14.854294 5.394926
lowerback -1.500227 1.139381 -4.833431 
upperback 5.025843 1.844223 -1.679073 
thorax 5.975590 0.730366 1.078185 
lowerneck -0.517780 -3.971072 2.122307 
upperneck 14.911505 -5.420731 -0.185240 
head 5.001075 -2.536725 -0.674651 
rclavicle 0.000000 0.000000 
rhumerus -34.568177 -11.541816 -84.823028 
rradius 42.805791 
rwrist 20.005609 
rhand -18.771663 -19.023063 
rfingers 0.000000 
rthumb 7.525559 -48.869211 
lclavicle 0.000000 0.000000 
lhumerus -31.118420 25.740687 74.716550 
lradius 28.420454 
lwrist -49.260551 
lhand -18.278531 1.627011 
lfingers 0.000000 
lthumb 8.001527 31.455539 
rfemur -12.828738 4.627427 20.513778 
rtibia 24.978268 
rfoot -18.227017 -10.257298 
rtoes -21.889345 
lfemur -72.065700 4.684911 -21.653599 
ltibia 74.233192 
lfoot -12.608196 -9.065071 
ltoes -46.453489 
75
root -8.884832 18.068448 -19.893317 4.330130 14.964362 5.396759
lowerback -1.732925 1.178718 -4.831297 
upperback 4.996269 1.911011 -1.676693 
thorax 6.074591 0.761515 1.089000 
lowerneck -0.548362 -4.007469 2.091275 
upperneck 14.940244 -5.471591 -0.166557 
head 5.019037 -2.561646 -0.666470 
rclavicle 0.000000 0.000000 
rhumerus -34.686763 -11.599159 -84.709719 
rradius 42.712314 
rwrist 19.898021 
rhand -18.804634 -18.798499 
rfingers 0.000000 
rthumb 7.493714 -48.645726 
lclavicle 0.000000 0.000000 
lhumerus -31.058268 25.691585 74.892761 
lradius 28.466554 
lwrist -49.061419 
lhand -18.304086 1.608276 
lfingers 0.000000 
lthumb 7.976852 31.437759 
rfemur -12.461415 4.644805 20.626283 
rtibia 24.846516 
rfoot -18.369365 -10.385281 
rtoes -21.882583 
lfemur -71.629116 4.058675 -21.388443 
ltibia 71.844119 
lfoot -12.742698 -8.689587 
ltoes -46.927760 
76
root -8.881421 18.066252 -19.811324 4.090513 14.999049 5.369994
lowerback -1.758221 1.230761 -4.756442 
upperback 5.027365 1.982426 -1.715648 
thorax 6.121749 0.800222 1.012410 
lowerneck -0.562885 -4.012993 2.097822 
upperneck 14.961356 -5.493465 -0.064229 
head 5.033059 -2.566314 -0.634601 
rclavicle 0.000000 0.000000 
rhumerus -34.828401 -11.874978 -84.595404 
rradius 42.604947 
rwrist 20.173147 
rhand -18.755364 -18.930943 
rfingers 0.000000 
rthumb 7.541317 -48.776484 
lclavicle 0.000000 0.000000 
lhumerus -31.082809 25.726103 74.901419 
lradius 28.546352 
lwrist -49.614156 
lhand -18.506805 1.950993 
lfingers 0.000000 
lthumb 7.781183 31.787811 
rfemur -11.735557 4.647508 20.785486 
rtibia 24.549995 
rfoot -18.475673 -10.445688 
rtoes -21.855295 
lfemur -70.892816 3.564326 -21.107965 
ltibia 69.637585 
lfoot -12.969239 -8.345724 
ltoes -46.899603 
77
root -8.871239 18.067662 -19.724763 3.904726 15.033815 5.382616
lowerback -1.849924 1.255470 -4.765248 
upperback 5.004346 2.018754 -1.674481 
thorax 6.146471 0.816289 1.064689 
lowerneck -0.469461 -3.991901 1.911164 
upperneck 14.985413 -5.462404 0.009366 
head 5.031696 -2.557408 -0.573690 
rclavicle 0.000000 0.000000 
rhumerus -35.084953 -11.862343 -84.324878 
rradius 42.482904 
rwrist 19.971391 
rhand -18.747845 -18.822643 
rfingers 0.000000 
rthumb 7.548536 -48.667968 
lclavicle 0.000000 0.000000 
lhumerus -31.194239 25.735446 74.996280 
lradius 28.650934 
lwrist -49.220199 
lhand -18.354721 1.823608 
lfingers 0.000000 
lthumb 7.928001 31.654920 
rfemur -11.076238 4.760461 20.876363 
rtibia 24.344237 
rfoot -18.710066 -10.605202 
rtoes -21.882645 
lfemur -70.106120 3.083927 -20.927117 
ltibia 67.550567 
lfoot -13.226612 -7.740235 
ltoes -46.440725 
